<?xml version="1.0" encoding="UTF-8"?>
<svg width="31px" height="31px" viewBox="0 0 31 31" version="1.1" xmlns="http://www.w3.org/2000/svg" xmlns:xlink="http://www.w3.org/1999/xlink">
    <title>Facebook</title>
    <g stroke="none" stroke-width="1" fill="none" fill-rule="evenodd" transform="translate(-765.000000, -8881.000000)">
        <g id="Group-10" transform="translate(765.269673, 8881.571986)" fill="#008EC6">
            <path d="M15,30.3690288 C6.71572875,30.3690288 0,23.6533 0,15.3690288 C0,7.08475754 6.71572875,0.369028788 15,0.369028788 C23.2842712,0.369028788 30,7.08475754 30,15.3690288 C30,23.6533 23.2842712,30.3690288 15,30.3690288 Z M12.6067466,23.8196029 L16.3206364,23.8196911 L16.3317141,15.3083852 L18.5584349,15.3083852 C18.7586734,15.3083852 18.9273115,15.1585484 18.9508794,14.9596781 L19.1971944,12.8815143 C19.2250874,12.6464536 19.0414435,12.4397715 18.8047499,12.4397715 L16.3206364,12.4397715 L16.3206364,10.7013555 C16.3206364,9.91297987 16.5395438,9.37577405 17.6700504,9.37577405 L18.716878,9.37528857 C18.9350351,9.37515617 19.1118823,9.19826487 19.1118823,8.98006362 L19.1118823,7.22774519 C19.1118823,7.00945568 18.9349027,6.83252024 18.7166573,6.83252024 L17.0108567,6.83252024 C14.932075,6.83252024 12.6067907,8.10138874 12.6067907,10.4316933 L12.6067907,12.4397274 L10.9348854,12.4397274 C10.7160222,12.4397274 10.5388219,12.6175896 10.5396605,12.8364529 L10.547693,14.9146167 C10.5485315,15.1322884 10.7252022,15.308297 10.9428738,15.308297 L12.6178243,15.308297 L12.6067466,23.8196029 Z" id="Facebook"></path>
        </g>
    </g>
</svg>