<?xml version="1.0" encoding="UTF-8"?>
<svg width="32px" height="32px" viewBox="0 0 32 32" version="1.1" xmlns="http://www.w3.org/2000/svg" xmlns:xlink="http://www.w3.org/1999/xlink">
    <title>instagram</title>
    <g stroke="none" stroke-width="1" fill="none" fill-rule="evenodd" transform="translate(-717.000000, -8881.000000)">
        <g id="instagram" transform="translate(717.600000, 8881.200000)" fill="#008EC6" fill-rule="nonzero">
            <path d="M15.223844,31.0903488 C6.81594711,31.0903488 0,24.2744017 0,15.8665048 C0,7.45860797 6.81594711,0.642660858 15.223844,0.642660858 C23.6317408,0.642660858 30.4476879,7.45860797 30.4476879,15.8665048 C30.4476879,24.2744017 23.6317408,31.0903488 15.223844,31.0903488 Z M18.8884251,6.61740359 L11.5592009,6.61740359 C8.5806111,6.61740359 6.15739775,9.04061695 6.15739775,12.0192068 L6.15739775,19.348431 C6.15739775,22.326897 8.5806111,24.750296 11.5592628,24.750296 L18.888487,24.750296 C21.8669531,24.750296 24.2903521,22.3270208 24.2903521,19.348431 L24.2903521,12.0192068 C24.2902902,9.04061695 21.8670149,6.61740359 18.8884251,6.61740359 Z M22.4661359,19.3484929 C22.4661359,21.3243609 20.864355,22.9261418 18.888487,22.9261418 L11.5592628,22.9261418 C9.58339475,22.9261418 7.98161385,21.3243609 7.98161385,19.3484929 L7.98161385,12.0192686 C7.98161385,10.0434006 9.58339475,8.44155782 11.5592628,8.44155782 L18.888487,8.44155782 C20.864355,8.44155782 22.4661359,10.0434625 22.4661359,12.0192686 L22.4661359,19.3484929 Z M15.223844,10.993963 C12.6379033,10.993963 10.5339572,13.0979092 10.5339572,15.6838498 C10.5339572,18.2696048 12.6379033,20.373551 15.223844,20.373551 C17.8097846,20.373551 19.9135451,18.2697904 19.9135451,15.6838498 C19.9135451,13.0979092 17.8097846,10.993963 15.223844,10.993963 Z M15.223844,18.5493967 C13.641182,18.5493967 12.3581114,17.2665737 12.3581114,15.6838498 C12.3581114,14.1011259 13.641182,12.8181173 15.223844,12.8181173 C16.806506,12.8181173 18.0893909,14.1010641 18.0893909,15.6838498 C18.0893909,17.2665118 16.806506,18.5493967 15.223844,18.5493967 Z M21.046325,11.0293547 C21.046325,10.4085779 20.5432935,9.90554646 19.9225168,9.90554646 C19.3019257,9.90554646 18.7987086,10.4087017 18.7987086,11.0293547 C18.7987086,11.6499458 19.3019257,12.1531629 19.9225168,12.1531629 C20.5431698,12.1531629 21.046325,11.6499458 21.046325,11.0293547 Z" id="Combined-Shape"></path>
        </g>
    </g>
</svg>