<?xml version="1.0" encoding="UTF-8"?>
<svg width="31px" height="31px" viewBox="0 0 31 31" version="1.1" xmlns="http://www.w3.org/2000/svg" xmlns:xlink="http://www.w3.org/1999/xlink">
    <title>linkedin</title>
    <g stroke="none" stroke-width="1" fill="none" fill-rule="evenodd" transform="translate(-860.000000, -8552.000000)">
        <g id="instagram" transform="translate(721.000000, 8552.000000)" fill="#008EC6" fill-rule="nonzero">
            <path d="M154.409015,30.4476879 C146.001118,30.4476879 139.185171,23.6317408 139.185171,15.223844 C139.185171,6.81594711 146.001118,0 154.409015,0 C162.816912,0 169.632859,6.81594711 169.632859,15.223844 C169.632859,23.6317408 162.816912,30.4476879 154.409015,30.4476879 Z M147.730454,14.2228649 L147.730454,21.6228649 L151.230454,21.6228649 L151.230454,13.6228649 L151.230454,11.5228649 L147.730454,11.5228649 L147.730454,14.2228649 Z M149.530454,10.0228649 C150.524567,10.0228649 151.330454,9.2169774 151.330454,8.22286485 C151.330454,7.2287523 150.524567,6.42286485 149.530454,6.42286485 C148.536342,6.42286485 147.730454,7.2287523 147.730454,8.22286485 C147.730454,9.2169774 148.536342,10.0228649 149.530454,10.0228649 Z M162.830454,14.6228649 C162.630454,12.7228649 161.730454,11.5228649 159.130454,11.5228649 C157.630454,11.5228649 156.530454,12.1228649 156.130454,12.9228649 L156.130454,11.5228649 L153.330454,11.5228649 L153.330454,13.4228649 L153.330454,21.6228649 L156.330454,21.6228649 L156.330454,16.6228649 C156.330454,15.3228649 156.530454,14.0228649 158.230454,14.0228649 C159.830454,14.0228649 159.930454,15.5228649 159.930454,16.7228649 L159.930454,21.6228649 L162.930454,21.6228649 L162.930454,16.0228649 C162.930454,15.5228649 162.930454,15.0228649 162.830454,14.6228649 Z" id="linkedin"></path>
        </g>
    </g>
</svg>