<?xml version="1.0" encoding="UTF-8"?>
<svg width="31px" height="31px" viewBox="0 0 31 31" version="1.1" xmlns="http://www.w3.org/2000/svg" xmlns:xlink="http://www.w3.org/1999/xlink">
    <title>Twitter</title>
    <g stroke="none" stroke-width="1" fill="none" fill-rule="evenodd" transform="translate(-810.000000, -8881.000000)">
        <g id="Group-10" transform="translate(765.269673, 8881.571986)" fill="#008EC6">
            <path d="M60.6,30.3690288 C52.3157288,30.3690288 45.6,23.6533 45.6,15.3690288 C45.6,7.08475754 52.3157288,0.369028788 60.6,0.369028788 C68.8842712,0.369028788 75.6,7.08475754 75.6,15.3690288 C75.6,23.6533 68.8842712,30.3690288 60.6,30.3690288 Z M69.8635141,10.8333888 C69.4696418,11.0080445 69.0607719,11.1458328 68.6412264,11.2455867 C69.1035174,10.8062892 69.4511,10.2568217 69.6471933,9.64351677 C69.7031644,9.46842882 69.5129924,9.31702592 69.3548902,9.41077211 C68.7712349,9.75697169 68.1425434,10.0166862 67.4862337,10.1827842 C67.448156,10.1924225 67.4088682,10.1973065 67.3694507,10.1973065 C67.2499017,10.1973065 67.1336806,10.1529186 67.0422683,10.0723548 C66.3439911,9.45693205 65.4459036,9.11799358 64.5134986,9.11799358 C64.1100313,9.11799358 63.7026741,9.18088002 63.3027077,9.30492407 C62.0634774,9.68928773 61.1073009,10.7115058 60.8073045,11.9726923 C60.6947572,12.4457453 60.6642865,12.9192305 60.7166702,13.3799655 C60.7226779,13.4329111 60.697653,13.469865 60.6822232,13.4871966 C60.6551236,13.5175809 60.6167002,13.534999 60.5768073,13.534999 C60.5723556,13.534999 60.5677742,13.5347829 60.563236,13.5343507 C57.8506044,13.2823295 55.4044731,11.9754584 53.6754201,9.85452132 C53.5872494,9.74633935 53.4181692,9.75960817 53.347892,9.88015132 C53.0092992,10.4610405 52.8303646,11.1254325 52.8303646,11.8014942 C52.8303646,12.8375862 53.2466253,13.81399 53.9696681,14.5257954 C53.665609,14.4537029 53.3713177,14.3401615 53.0979454,14.1883264 C52.9656893,14.1148509 52.8029626,14.2092886 52.8011041,14.3605618 C52.7821733,15.8997453 53.6833295,17.2693299 55.0332918,17.8860492 C55.0061059,17.8866975 54.9789199,17.8870001 54.9516907,17.8870001 C54.7377039,17.8870001 54.5210374,17.8663405 54.3077854,17.8255832 C54.1588461,17.7971438 54.0337215,17.938433 54.0799679,18.0828341 C54.5181416,19.4508195 55.6959982,20.4591636 57.1055189,20.6881049 C55.9357015,21.4733858 54.5734212,21.8876151 53.1555588,21.8876151 L52.7135385,21.8873558 C52.5773493,21.8873558 52.4621656,21.9761316 52.4274592,22.1080418 C52.3932714,22.2379639 52.4562443,22.3750175 52.5723789,22.4425718 C54.1700836,23.3723835 55.9924938,23.8638054 57.8433865,23.8638054 C59.4635228,23.8638054 60.9790212,23.5422849 62.3478279,22.908234 C63.6026609,22.3269558 64.7115369,21.4960336 65.6436393,20.4385472 C66.5119476,19.453456 67.1909483,18.3162703 67.6617106,17.0586279 C68.1104734,15.8598092 68.3476699,14.5806427 68.3476699,13.3593924 L68.3476699,13.301217 C68.3476266,13.1051237 68.436316,12.9206136 68.5910469,12.7950136 C69.1782031,12.3182868 69.6895066,11.7571063 70.1106945,11.1270749 C70.2219019,10.9607176 70.0465114,10.7522199 69.8635141,10.8333888 Z" id="Twitter"></path>
        </g>
    </g>
</svg>