<?xml version="1.0" encoding="UTF-8"?>
<svg width="500px" height="125px" viewBox="0 0 500 125" version="1.1" xmlns="http://www.w3.org/2000/svg" xmlns:xlink="http://www.w3.org/1999/xlink">
    <!-- Generator: Sketch 48.1 (47250) - http://www.bohemiancoding.com/sketch -->
    <title>Page 1</title>
    <desc>Created with Sketch.</desc>
    <defs>
        <polygon id="path-1" points="0 124.199775 499.194141 124.199775 499.194141 0 0 0"></polygon>
    </defs>
    <g id="Desktop-HD" stroke="none" stroke-width="1" fill="none" fill-rule="evenodd" transform="translate(-464.000000, -230.000000)">
        <g id="Page-1" transform="translate(463.970420, 230.287704)">
            <path d="M52.6997373,45.345026 C50.000454,48.6289152 46.7281614,51.2388364 42.8814951,53.1727429 C39.035511,55.1059673 34.7952419,56.0739438 30.1620521,56.0739438 C26.1578082,56.0739438 22.4025506,55.3419925 18.8935505,53.8808187 C15.3845504,52.4196449 12.3312292,50.4291196 9.73563335,47.9092428 C7.14003747,45.3900482 5.09221123,42.4329107 3.5955654,39.0357839 C2.09823742,35.6393392 1.34923235,31.9843582 1.34923235,28.0708408 C1.34923235,24.1566413 2.09823742,20.5030246 3.5955654,17.1058978 C5.09221123,13.7094531 7.14003747,10.740719 9.73563335,8.19833115 C12.3312292,5.65730758 15.3845504,3.66678228 18.8935505,2.22675523 C22.4025506,0.787410336 26.1578082,0.06773789 30.1620521,0.06773789 C34.7952419,0.06773789 39.035511,1.03503223 42.8814951,2.96893876 C46.7281614,4.90352744 49.9329208,7.42272208 52.4971376,10.5265227 L45.2772199,17.9490401 C43.6127642,15.5655941 41.4646613,13.6419199 38.8329113,12.1793818 C36.2011612,10.7182079 33.3108748,9.98693888 30.1620521,9.98693888 C27.6428574,9.98693888 25.2703259,10.470586 23.0430931,11.4371982 C20.8165426,12.4051747 18.8703573,13.7094531 17.2065837,15.3513978 C15.5414459,16.9940245 14.226253,18.90542 13.2589586,21.0869484 C12.2916643,23.269159 11.8086993,25.5973505 11.8086993,28.0708408 C11.8086993,30.4999911 12.2916643,32.8056716 13.2589586,34.9872 C14.226253,37.1694106 15.5414459,39.080806 17.2065837,40.7227506 C18.8703573,42.3653774 20.8165426,43.6696558 23.0430931,44.636268 C25.2703259,45.6042445 27.6428574,46.0872095 30.1620521,46.0872095 C33.4909635,46.0872095 36.4378686,45.3341115 39.0014033,43.8265512 C41.5663023,42.3196731 43.7021264,40.3291478 45.4122864,37.8549753 L52.6997373,45.345026 Z" id="Fill-1" fill="#FAFAFA"></path>
            <polygon id="Fill-3" fill="#FAFAFA" points="100.338574 55.0617637 89.8797895 55.0617637 89.8797895 31.1747778 68.6238716 31.1747778 68.6238716 55.0617637 58.1650868 55.0617637 58.1650868 1.14704191 68.6238716 1.14704191 68.6238716 22.5373442 89.8797895 22.5373442 89.8797895 1.14704191 100.338574 1.14704191"></polygon>
            <mask id="mask-2" fill="white">
                <use xlink:href="#path-1"></use>
            </mask>
            <g id="Clip-6"></g>
            <polygon id="Fill-5" fill="#FAFAFA" mask="url(#mask-2)" points="110.459829 55.0614226 120.918614 55.0614226 120.918614 1.14670084 110.459829 1.14670084"></polygon>
            <path d="M180.366082,45.345026 C177.666799,48.6289152 174.394506,51.2388364 170.54784,53.1727429 C166.701856,55.1059673 162.461587,56.0739438 157.828397,56.0739438 C153.824153,56.0739438 150.068895,55.3419925 146.559895,53.8808187 C143.050895,52.4196449 139.997574,50.4291196 137.401978,47.9092428 C134.806382,45.3900482 132.758556,42.4329107 131.26191,39.0357839 C129.764582,35.6393392 129.015577,31.9843582 129.015577,28.0708408 C129.015577,24.1566413 129.764582,20.5030246 131.26191,17.1058978 C132.758556,13.7094531 134.806382,10.740719 137.401978,8.19833115 C139.997574,5.65730758 143.050895,3.66678228 146.559895,2.22675523 C150.068895,0.787410336 153.824153,0.06773789 157.828397,0.06773789 C162.461587,0.06773789 166.701856,1.03503223 170.54784,2.96893876 C174.394506,4.90352744 177.599266,7.42272208 180.163482,10.5265227 L172.943565,17.9490401 C171.279109,15.5655941 169.131006,13.6419199 166.499256,12.1793818 C163.867506,10.7182079 160.97722,9.98693888 157.828397,9.98693888 C155.309202,9.98693888 152.936671,10.470586 150.709438,11.4371982 C148.482887,12.4051747 146.536702,13.7094531 144.872928,15.3513978 C143.207791,16.9940245 141.892598,18.90542 140.925303,21.0869484 C139.958009,23.269159 139.475044,25.5973505 139.475044,28.0708408 C139.475044,30.4999911 139.958009,32.8056716 140.925303,34.9872 C141.892598,37.1694106 143.207791,39.080806 144.872928,40.7227506 C146.536702,42.3653774 148.482887,43.6696558 150.709438,44.636268 C152.936671,45.6042445 155.309202,46.0872095 157.828397,46.0872095 C161.157308,46.0872095 164.104213,45.3341115 166.667748,43.8265512 C169.232647,42.3196731 171.368471,40.3291478 173.078631,37.8549753 L180.366082,45.345026 Z" id="Fill-7" fill="#FAFAFA" mask="url(#mask-2)"></path>
            <path d="M219.70522,35.5607551 L210.730802,16.1275526 L201.621318,35.5607551 L219.70522,35.5607551 Z M240.285805,55.0614908 L228.814704,55.0614908 L223.821337,44.2650398 L197.640267,44.2650398 L192.579367,55.0614908 L181.108266,55.0614908 L206.614685,1.07991796 L214.779386,1.07991796 L240.285805,55.0614908 Z" id="Fill-8" fill="#FAFAFA" mask="url(#mask-2)"></path>
            <path d="M281.716222,40.8913791 C281.716222,42.9160121 281.277597,44.8390042 280.400347,46.6610374 C279.523097,48.4823886 278.297267,50.0915898 276.723538,51.4852304 C275.147762,52.8802353 273.282071,53.9935106 271.123053,54.8257384 C268.963354,55.6572841 266.578544,56.073398 263.969987,56.073398 C261.630881,56.073398 259.527118,55.9390137 257.660745,55.6688807 C255.793689,55.3994299 254.039189,54.9724015 252.397927,54.3871134 C250.754618,53.8031896 249.180889,53.0487273 247.67401,52.1264551 C246.16645,51.2048651 244.603635,50.0915898 242.984202,48.7866292 L250.407401,41.2965786 C252.566419,43.0961008 254.680414,44.3662715 256.749387,45.1091371 C258.819042,45.8513207 261.068104,46.2217303 263.497936,46.2217303 C264.486377,46.2217303 265.420246,46.0771136 266.297496,45.7837874 C267.175428,45.4918255 267.939441,45.0982227 268.592262,44.6022967 C269.243719,44.1084173 269.761474,43.5231291 270.144162,42.8484789 C270.526169,42.1731464 270.717854,41.4316451 270.717854,40.6212461 C270.717854,39.7678715 270.559594,39.0018126 270.245803,38.3271623 C269.930648,37.652512 269.367871,37.001055 268.558154,36.3707447 C267.748438,35.7411166 266.623566,35.0998918 265.184903,34.4470705 C263.744194,33.7956134 261.900332,33.0636622 259.65127,32.2539454 C257.671659,31.5356373 255.77186,30.7143239 253.949145,29.7913696 C252.127794,28.8697796 250.530189,27.7565043 249.158377,26.4515437 C247.785884,25.1472653 246.684205,23.6171939 245.851977,21.8626939 C245.019749,20.1081939 244.603635,18.039903 244.603635,15.6550927 C244.603635,13.3610089 245.064771,11.2463316 245.987044,9.31242502 C246.908634,7.3785185 248.168572,5.72497726 249.766177,4.35248345 C251.362417,2.9806718 253.229472,1.91241868 255.366661,1.14704191 C257.502485,0.383029458 259.808848,0.000341076989 262.28302,0.000341076989 C266.420966,0.000341076989 269.907455,0.539924873 272.742487,1.61977462 C275.576155,2.69894221 278.094667,4.27403575 280.299389,6.34300876 L273.011938,13.6979929 C271.662637,12.3937145 270.155077,11.3929947 268.490621,10.6951511 C266.826165,9.99798977 264.869748,9.64940909 262.620686,9.64940909 C261.585176,9.64940909 260.630161,9.80766881 259.752911,10.1221418 C258.875661,10.4366148 258.121199,10.8534109 257.492253,11.3698014 C256.86126,11.8875563 256.355102,12.4953555 255.97446,13.1918347 C255.591089,13.8896782 255.400086,14.6202651 255.400086,15.3849597 C255.400086,16.2396987 255.579493,17.0159899 255.940352,17.7124691 C256.299847,18.4109948 256.906964,19.0856451 257.762386,19.7371021 C258.616442,20.3899235 259.752911,21.0427448 261.169745,21.6942019 C262.586579,22.3463411 264.351993,23.0550991 266.46667,23.8197937 C269.165954,24.7638948 271.481866,25.7994045 273.417137,26.9235943 C275.350362,28.0484662 276.926137,29.2852113 278.140371,30.6345119 C279.354605,31.9844946 280.253684,33.5022872 280.839655,35.1899362 C281.423578,36.8762208 281.716222,38.7773839 281.716222,40.8913791" id="Fill-9" fill="#FAFAFA" mask="url(#mask-2)"></path>
            <polygon id="Fill-10" fill="#FAFAFA" mask="url(#mask-2)" points="346.021923 55.0617637 310.393703 55.0617637 310.393703 1.14704191 346.021923 1.14704191 346.021923 9.78447558 320.65057 9.78447558 320.65057 22.6724107 345.684257 22.6724107 345.684257 31.1072446 320.65057 31.1072446 320.65057 45.9522795 346.021923 45.9522795"></polygon>
            <polygon id="Fill-11" fill="#FAFAFA" mask="url(#mask-2)" points="398.991452 55.0617637 388.734585 55.0617637 364.375549 17.206993 364.375549 55.0617637 354.118681 55.0617637 354.118681 1.07950867 365.859916 1.07950867 388.734585 36.3025293 388.734585 1.07950867 398.991452 1.07950867"></polygon>
            <polygon id="Fill-12" fill="#FAFAFA" mask="url(#mask-2)" points="40.4189193 78.5854343 25.5063512 78.5854343 25.5063512 123.188072 14.9124999 123.188072 14.9124999 78.5854343 -6.82153977e-05 78.5854343 -6.82153977e-05 69.2733504 40.4189193 69.2733504"></polygon>
            <polygon id="Fill-13" fill="#FAFAFA" mask="url(#mask-2)" points="82.7937786 123.187867 47.1655585 123.187867 47.1655585 69.2731457 82.7937786 69.2731457 82.7937786 77.9105794 57.4224257 77.9105794 57.4224257 90.7991966 82.4567946 90.7991966 82.4567946 99.2333484 57.4224257 99.2333484 57.4224257 114.078383 82.7937786 114.078383"></polygon>
            <path d="M140.216955,113.471198 C137.517671,116.755087 134.245379,119.365008 130.398713,121.298915 C126.552728,123.232139 122.312459,124.200116 117.679269,124.200116 C113.675026,124.200116 109.919768,123.468165 106.410768,122.006991 C102.901768,120.545817 99.8484466,118.555292 97.2528508,116.035415 C94.6572549,113.51622 92.6094286,110.559083 91.1127828,107.161956 C89.6154548,103.765511 88.8664498,100.11053 88.8664498,96.1970128 C88.8664498,92.2828133 89.6154548,88.6285145 91.1127828,85.2320698 C92.6094286,81.8356251 94.6572549,78.8662089 97.2528508,76.3245032 C99.8484466,73.7834796 102.901768,71.7929543 106.410768,70.3529272 C109.919768,68.9135823 113.675026,68.1939099 117.679269,68.1939099 C122.312459,68.1939099 126.552728,69.1612042 130.398713,71.0951108 C134.245379,73.0303816 137.450138,75.5488941 140.014355,78.6526947 L132.794437,86.0752121 C131.129982,83.6917661 128.981879,81.7680919 126.350129,80.3062359 C123.718379,78.84438 120.828092,78.1131109 117.679269,78.1131109 C115.160075,78.1131109 112.787543,78.5967581 110.560311,79.5640524 C108.33376,80.5313467 106.387575,81.8356251 104.723801,83.4768876 C103.058663,85.1195144 101.74347,87.031592 100.776176,89.2124383 C99.8088817,91.395331 99.3259167,93.7235225 99.3259167,96.1970128 C99.3259167,98.6261631 99.8088817,100.931844 100.776176,103.113372 C101.74347,105.296265 103.058663,107.206978 104.723801,108.848923 C106.387575,110.491549 108.33376,111.795828 110.560311,112.76244 C112.787543,113.730417 115.160075,114.213382 117.679269,114.213382 C121.008181,114.213382 123.955086,113.460284 126.518621,111.952723 C129.08352,110.445845 131.219344,108.45532 132.929504,105.981147 L140.216955,113.471198 Z" id="Fill-14" fill="#FAFAFA" mask="url(#mask-2)"></path>
            <polygon id="Fill-15" fill="#FAFAFA" mask="url(#mask-2)" points="190.555075 123.187867 180.298208 123.187867 155.939171 85.3330968 155.939171 123.187867 145.682304 123.187867 145.682304 69.2056125 157.423538 69.2056125 180.298208 104.429315 180.298208 69.2056125 190.555075 69.2056125"></polygon>
            <path d="M245.412875,96.1968082 C245.412875,93.7233179 244.93946,91.3951263 243.99263,89.2129158 C243.0458,87.0313873 241.75039,85.1199919 240.105717,83.4773651 C238.461043,81.8354205 236.533276,80.5311421 234.325826,79.5638478 C232.117694,78.5965534 229.773813,78.1129062 227.294865,78.1129062 C224.770895,78.1129062 222.404503,78.5965534 220.196371,79.5638478 C217.98892,80.5311421 216.061153,81.8354205 214.41648,83.4773651 C212.771807,85.1199919 211.475714,87.0313873 210.528885,89.2129158 C209.582737,91.3951263 209.110004,93.7233179 209.110004,96.1968082 C209.110004,98.6266407 209.582737,100.943236 210.528885,103.146593 C211.475714,105.351997 212.771807,107.274307 214.41648,108.916251 C216.061153,110.55956 217.98892,111.863156 220.196371,112.830451 C222.404503,113.798427 224.770895,114.28071 227.294865,114.28071 C229.773813,114.28071 232.117694,113.798427 234.325826,112.830451 C236.533276,111.863156 238.461043,110.55956 240.105717,108.916251 C241.75039,107.274307 243.0458,105.351997 243.99263,103.146593 C244.93946,100.943236 245.412875,98.6266407 245.412875,96.1968082 M255.871659,96.1968082 C255.871659,100.066668 255.119244,103.710052 253.61373,107.127644 C252.108216,110.547281 250.052886,113.516698 247.446376,116.03521 C244.840547,118.555087 241.808373,120.545612 238.347806,122.006786 C234.887239,123.468642 231.203607,124.199911 227.294865,124.199911 C223.385441,124.199911 219.690212,123.468642 216.207816,122.006786 C212.72542,120.545612 209.681649,118.555087 207.075139,116.03521 C204.469311,113.516698 202.413981,110.55956 200.908467,107.161751 C199.402953,103.765989 198.651219,100.110326 198.651219,96.1968082 C198.651219,92.2832908 199.402953,88.6173953 200.908467,85.1977575 C202.413981,81.7794839 204.469311,78.8107498 207.075139,76.290873 C209.681649,73.7723605 212.72542,71.7934318 216.207816,70.3527226 C219.690212,68.9133777 223.385441,68.1937053 227.294865,68.1937053 C231.203607,68.1937053 234.887239,68.9133777 238.347806,70.3527226 C241.808373,71.7934318 244.840547,73.7839571 247.446376,76.3242985 C250.052886,78.8666864 252.108216,81.8354205 253.61373,85.2318652 C255.119244,88.6283098 255.871659,92.2832908 255.871659,96.1968082" id="Fill-16" fill="#FAFAFA" mask="url(#mask-2)"></path>
            <polygon id="Fill-17" fill="#FAFAFA" mask="url(#mask-2)" points="300.542103 123.187867 264.035951 123.187867 264.035951 69.2731457 274.698018 69.2731457 274.698018 113.066067 300.542103 113.066067"></polygon>
            <path d="M347.775945,96.1968082 C347.775945,93.7233179 347.303213,91.3951263 346.355701,89.2129158 C345.408871,87.0313873 344.113461,85.1199919 342.468788,83.4773651 C340.824114,81.8354205 338.896347,80.5311421 336.688897,79.5638478 C334.480764,78.5965534 332.136883,78.1129062 329.657936,78.1129062 C327.133966,78.1129062 324.767574,78.5965534 322.559442,79.5638478 C320.351991,80.5311421 318.424906,81.8354205 316.780233,83.4773651 C315.134878,85.1199919 313.838785,87.0313873 312.891955,89.2129158 C311.945808,91.3951263 311.473075,93.7233179 311.473075,96.1968082 C311.473075,98.6266407 311.945808,100.943236 312.891955,103.146593 C313.838785,105.351997 315.134878,107.274307 316.780233,108.916251 C318.424906,110.55956 320.351991,111.863156 322.559442,112.830451 C324.767574,113.798427 327.133966,114.28071 329.657936,114.28071 C332.136883,114.28071 334.480764,113.798427 336.688897,112.830451 C338.896347,111.863156 340.824114,110.55956 342.468788,108.916251 C344.113461,107.274307 345.408871,105.351997 346.355701,103.146593 C347.303213,100.943236 347.775945,98.6266407 347.775945,96.1968082 M358.235412,96.1968082 C358.235412,100.066668 357.482314,103.710052 355.976801,107.127644 C354.470605,110.547281 352.416639,113.516698 349.809446,116.03521 C347.203618,118.555087 344.171444,120.545612 340.711559,122.006786 C337.25031,123.468642 333.566678,124.199911 329.657936,124.199911 C325.749194,124.199911 322.053283,123.468642 318.570887,122.006786 C315.088491,120.545612 312.04472,118.555087 309.43821,116.03521 C306.832382,113.516698 304.777052,110.55956 303.271538,107.161751 C301.766024,103.765989 301.01429,100.110326 301.01429,96.1968082 C301.01429,92.2832908 301.766024,88.6173953 303.271538,85.1977575 C304.777052,81.7794839 306.832382,78.8107498 309.43821,76.290873 C312.04472,73.7723605 315.088491,71.7934318 318.570887,70.3527226 C322.053283,68.9133777 325.749194,68.1937053 329.657936,68.1937053 C333.566678,68.1937053 337.25031,68.9133777 340.711559,70.3527226 C344.171444,71.7934318 347.203618,73.7839571 349.809446,76.3242985 C352.416639,78.8666864 354.470605,81.8354205 355.976801,85.2318652 C357.482314,88.6283098 358.235412,92.2832908 358.235412,96.1968082" id="Fill-18" fill="#FAFAFA" mask="url(#mask-2)"></path>
            <path d="M416.063993,113.268666 C414.533921,115.158233 412.868783,116.789263 411.070625,118.161075 C409.270421,119.533569 407.392451,120.669355 405.436034,121.568434 C403.479616,122.468877 401.476812,123.131931 399.43035,123.558959 C397.382524,123.985988 395.348341,124.199502 393.323708,124.199502 C389.319464,124.199502 385.563524,123.479829 382.055206,122.040484 C378.546206,120.601822 375.486745,118.622893 372.877506,116.102334 C370.268267,113.583822 368.198612,110.614405 366.670587,107.196132 C365.140516,103.777858 364.376504,100.088769 364.376504,96.1295478 C364.376504,92.2610526 365.128919,88.6285827 366.63648,85.2314559 C368.143358,81.8356934 370.212331,78.8785559 372.844763,76.3586791 C375.475831,73.8394844 378.546206,71.8489591 382.055206,70.3871032 C385.563524,68.9252472 389.319464,68.1939781 393.323708,68.1939781 C397.956215,68.1939781 402.173973,69.1387614 405.975617,71.0276457 C409.776579,72.9172123 413.004532,75.437089 415.658793,78.5852297 L408.584856,85.8051474 C406.563634,83.0622062 404.296154,81.0935098 401.781735,79.9011047 C399.265951,78.7100638 396.459569,78.1131791 393.360544,78.1131791 C390.801102,78.1131791 388.397874,78.5852297 386.152223,79.5300129 C383.90589,80.4747962 381.941968,81.7681601 380.25773,83.4101047 C378.57281,85.0527315 377.248749,86.9634448 376.282819,89.1456554 C375.316889,91.327866 374.835288,93.6560575 374.835288,96.1295478 C374.835288,98.6487424 375.316889,100.999445 376.282819,103.180973 C377.247385,105.363184 378.571446,107.286176 380.255684,108.94995 C381.938558,110.614405 383.902479,111.918684 386.147448,112.863467 C388.391052,113.80825 390.792234,114.280301 393.350994,114.280301 C395.775369,114.280301 398.063996,113.831444 400.21892,112.931682 C402.373162,112.032603 404.303658,110.839516 406.009725,109.355149 L406.009725,104.159182 L394.943141,104.159182 L394.943141,95.2522978 L416.063993,95.2522978 L416.063993,113.268666 Z" id="Fill-19" fill="#FAFAFA" mask="url(#mask-2)"></path>
            <path d="M424.15925,123.18814 L434.618717,123.18814 L434.618717,69.2734186 L424.15925,69.2734186 L424.15925,123.18814 Z M439.004967,51.3921164 L429.287684,64.4151179 L422.135299,64.4151179 L428.207834,51.3921164 L439.004967,51.3921164 Z" id="Fill-20" fill="#FAFAFA" mask="url(#mask-2)"></path>
            <path d="M478.613624,103.6872 L469.639206,84.2533153 L460.529722,103.6872 L478.613624,103.6872 Z M499.19421,123.187936 L487.723108,123.187936 L482.729741,112.391485 L456.548672,112.391485 L451.487771,123.187936 L440.01667,123.187936 L465.523089,69.2056807 L473.68779,69.2056807 L499.19421,123.187936 Z" id="Fill-21" fill="#FAFAFA" mask="url(#mask-2)"></path>
        </g>
    </g>
</svg>