<?xml version="1.0" encoding="UTF-8"?>
<svg width="175px" height="44px" viewBox="0 0 175 44" version="1.1" xmlns="http://www.w3.org/2000/svg" xmlns:xlink="http://www.w3.org/1999/xlink">
    <!-- Generator: Sketch 48.1 (47250) - http://www.bohemiancoding.com/sketch -->
    <title>Page 1 Copy 2</title>
    <desc>Created with Sketch.</desc>
    <defs></defs>
    <g id="Desktop-HD" stroke="none" stroke-width="1" fill="none" fill-rule="evenodd" transform="translate(-56.000000, -15.000000)">
        <g id="Page-1-Copy-2" transform="translate(56.000000, 15.057648)">
            <path d="M18.4261959,15.8546584 C17.4824052,17.0028536 16.3382647,17.9153993 14.9932973,18.5915799 C13.6485685,19.267522 12.1659799,19.6059701 10.5460085,19.6059701 C9.14594499,19.6059701 7.8329382,19.350047 6.60603412,18.839155 C5.37913005,18.328263 4.31155177,17.6322859 3.40401483,16.7512238 C2.49647789,15.8704002 1.78046583,14.836452 1.25717121,13.6486639 C0.733638073,12.4611142 0.47175225,11.1831686 0.47175225,9.81482714 C0.47175225,8.44624713 0.733638073,7.16877858 1.25717121,5.98099042 C1.78046583,4.79344077 2.49647789,3.75543794 3.40401483,2.86650491 C4.31155177,1.97804891 5.37913005,1.28207183 6.60603412,0.778573674 C7.8329382,0.275314031 9.14594499,0.0236842097 10.5460085,0.0236842097 C12.1659799,0.0236842097 13.6485685,0.361893771 14.9932973,1.03807438 C16.3382647,1.7144935 17.4587925,2.59531713 18.3553579,3.68054527 L15.8309503,6.27579085 C15.2489818,5.44243104 14.4979086,4.76982811 13.5777305,4.25845907 C12.6575524,3.74756705 11.6469785,3.49188253 10.5460085,3.49188253 C9.66518492,3.49188253 8.8356413,3.66098731 8.05690067,3.99895836 C7.27839854,4.33740644 6.59792472,4.79344077 6.01619474,5.36753838 C5.43398773,5.9418745 4.97413721,6.61018423 4.63592765,7.37294457 C4.29771809,8.13594344 4.12885182,8.9499838 4.12885182,9.81482714 C4.12885182,10.6641672 4.29771809,11.4703367 4.63592765,12.2330971 C4.97413721,12.9960959 5.43398773,13.6644056 6.01619474,14.2385033 C6.59792472,14.8128394 7.27839854,15.2688737 8.05690067,15.6068448 C8.8356413,15.9452928 9.66518492,16.1141591 10.5460085,16.1141591 C11.7099455,16.1141591 12.740316,15.8508422 13.6366429,15.3237314 C14.5334468,14.7968591 15.2802269,14.100882 15.8781756,13.2358002 L18.4261959,15.8546584 Z" id="Fill-1" fill="#439DD6"></path>
            <polygon id="Fill-3" fill="#439DD6" points="35.0828737 19.2520664 31.4260126 19.2520664 31.4260126 10.900103 23.9939887 10.900103 23.9939887 19.2520664 20.3371276 19.2520664 20.3371276 0.401057388 23.9939887 0.401057388 23.9939887 7.88006811 31.4260126 7.88006811 31.4260126 0.401057388 35.0828737 0.401057388"></polygon>
            <polygon id="Fill-5" fill="#439DD6" points="38.6217192 19.2519472 42.2785802 19.2519472 42.2785802 0.400938132 38.6217192 0.400938132"></polygon>
            <path d="M63.064086,15.8546584 C62.1202952,17.0028536 60.9761547,17.9153993 59.6311874,18.5915799 C58.2864585,19.267522 56.8038699,19.6059701 55.1838986,19.6059701 C53.783835,19.6059701 52.4708282,19.350047 51.2439242,18.839155 C50.0170201,18.328263 48.9494418,17.6322859 48.0419049,16.7512238 C47.1343679,15.8704002 46.4183559,14.836452 45.8950613,13.6486639 C45.3715281,12.4611142 45.1096423,11.1831686 45.1096423,9.81482714 C45.1096423,8.44624713 45.3715281,7.16877858 45.8950613,5.98099042 C46.4183559,4.79344077 47.1343679,3.75543794 48.0419049,2.86650491 C48.9494418,1.97804891 50.0170201,1.28207183 51.2439242,0.778573674 C52.4708282,0.275314031 53.783835,0.0236842097 55.1838986,0.0236842097 C56.8038699,0.0236842097 58.2864585,0.361893771 59.6311874,1.03807438 C60.9761547,1.7144935 62.0966826,2.59531713 62.993248,3.68054527 L60.4688404,6.27579085 C59.8868719,5.44243104 59.1357986,4.76982811 58.2156205,4.25845907 C57.2954425,3.74756705 56.2848685,3.49188253 55.1838986,3.49188253 C54.303075,3.49188253 53.4735313,3.66098731 52.6947907,3.99895836 C51.9162886,4.33740644 51.2358148,4.79344077 50.6540848,5.36753838 C50.0718778,5.9418745 49.6120273,6.61018423 49.2738177,7.37294457 C48.9356081,8.13594344 48.7667419,8.9499838 48.7667419,9.81482714 C48.7667419,10.6641672 48.9356081,11.4703367 49.2738177,12.2330971 C49.6120273,12.9960959 50.0718778,13.6644056 50.6540848,14.2385033 C51.2358148,14.8128394 51.9162886,15.2688737 52.6947907,15.6068448 C53.4735313,15.9452928 54.303075,16.1141591 55.1838986,16.1141591 C56.3478356,16.1141591 57.378206,15.8508422 58.2745329,15.3237314 C59.1713368,14.7968591 59.9181169,14.100882 60.5160657,13.2358002 L63.064086,15.8546584 Z" id="Fill-7" fill="#439DD6"></path>
            <path d="M76.818816,12.4336377 L73.6809563,5.63891697 L70.4958714,12.4336377 L76.818816,12.4336377 Z M84.0147133,19.251971 L80.0039009,19.251971 L78.2579954,15.4770467 L69.1039172,15.4770467 L67.3343991,19.251971 L63.3235867,19.251971 L72.2417768,0.377587839 L75.0965231,0.377587839 L84.0147133,19.251971 Z" id="Fill-8" fill="#439DD6"></path>
            <path d="M98.5006486,14.2974633 C98.5006486,15.005366 98.3472856,15.6777304 98.0405596,16.3147951 C97.7338335,16.9516213 97.3052281,17.5142704 96.7549816,18.0015497 C96.2040196,18.4893061 95.5516902,18.8785572 94.7968007,19.1695414 C94.0416728,19.4602871 93.2078359,19.6057793 92.2957673,19.6057793 C91.4779107,19.6057793 90.7423407,19.5587925 90.0897727,19.4643418 C89.4369663,19.3701297 88.8235142,19.2208214 88.2496551,19.0161784 C87.6750805,18.8120124 87.1248341,18.5482185 86.5979618,18.2257507 C86.070851,17.9035214 85.5244207,17.5142704 84.958194,17.0579975 L87.5536781,14.4391393 C88.3085675,15.0683331 89.0477152,15.5124418 89.7711211,15.7721811 C90.4947656,16.0316818 91.2811386,16.1611936 92.1307172,16.1611936 C92.4763206,16.1611936 92.8028431,16.1106291 93.1095691,16.0080691 C93.4165336,15.9059861 93.6836667,15.7683649 93.9119224,15.5949669 C94.1397011,15.4222844 94.3207314,15.2176414 94.4545365,14.9817533 C94.588103,14.7456268 94.6551248,14.4863646 94.6551248,14.2030127 C94.6551248,13.9046346 94.5997901,13.636786 94.4900747,13.4008979 C94.3798823,13.1650099 94.1831102,12.9372312 93.8999968,12.7168464 C93.6168835,12.4967002 93.2235777,12.2724992 92.7205566,12.0442435 C92.2168199,11.8164649 91.5721228,11.5605418 90.7857498,11.2774285 C90.0935889,11.0262757 89.4293339,10.7391076 88.7920307,10.4164013 C88.1552045,10.094172 87.5966102,9.70492096 87.1169632,9.24864812 C86.6370777,8.79261379 86.2518813,8.25763209 85.9608971,7.64418006 C85.6699128,7.03072802 85.5244207,6.30756061 85.5244207,5.47372378 C85.5244207,4.671609 85.6856546,3.9322228 86.0081224,3.25604219 C86.3303517,2.57986158 86.7708827,2.00170927 87.3294771,1.52182377 C87.8875944,1.04217678 88.5404009,0.668667492 89.287658,0.401057388 C90.034438,0.133924308 90.840846,0.000119255839 91.7059279,0.000119255839 C93.1527397,0.000119255839 94.3717729,0.188781994 95.3630275,0.566345982 C96.353805,0.943671458 97.2343901,1.49439492 98.0052598,2.21780085 L95.4572396,4.78943377 C94.9854635,4.33339944 94.4583527,3.98350281 93.8763842,3.73950536 C93.2944157,3.49574642 92.6103642,3.37386696 91.8239912,3.37386696 C91.4619304,3.37386696 91.1280141,3.42920166 90.8212881,3.53915555 C90.514562,3.64910943 90.2507681,3.79484007 90.0308604,3.97539341 C89.8102371,4.15642377 89.6332614,4.36893768 89.5001719,4.6124581 C89.3661283,4.85645555 89.299345,5.11190156 89.299345,5.37927315 C89.299345,5.67812829 89.3620736,5.94955458 89.4882463,6.193075 C89.6139419,6.43731096 89.8262173,6.67319901 90.125311,6.90097766 C90.4239276,7.12923334 90.8212881,7.35748902 91.3166768,7.58526767 C91.8120656,7.81328484 92.4293338,8.06109847 93.16872,8.32847006 C94.1125107,8.65857023 94.9222579,9.02063096 95.5989155,9.4136982 C96.2748576,9.80700396 96.8258196,10.2394256 97.2503704,10.7112017 C97.6749212,11.1832163 97.9892796,11.7139048 98.1941611,12.3039827 C98.3983271,12.8935836 98.5006486,13.5583156 98.5006486,14.2974633" id="Fill-9" fill="#439DD6"></path>
            <polygon id="Fill-10" fill="#509587" points="120.984811 19.2520664 108.527584 19.2520664 108.527584 0.401057388 120.984811 0.401057388 120.984811 3.42109227 112.113846 3.42109227 112.113846 7.92729342 120.866747 7.92729342 120.866747 10.8764903 112.113846 10.8764903 112.113846 16.0669815 120.984811 16.0669815"></polygon>
            <polygon id="Fill-11" fill="#509587" points="139.505338 19.2520664 135.919076 19.2520664 127.402063 6.01633785 127.402063 19.2520664 123.815801 19.2520664 123.815801 0.377444732 127.921064 0.377444732 135.919076 12.6929953 135.919076 0.377444732 139.505338 0.377444732"></polygon>
            <polygon id="Fill-12" fill="#9B5EA5" points="14.1322702 27.4769986 8.91816634 27.4769986 8.91816634 43.0720847 5.21407996 43.0720847 5.21407996 27.4769986 -2.38511679e-05 27.4769986 -2.38511679e-05 24.2210757 14.1322702 24.2210757"></polygon>
            <polygon id="Fill-13" fill="#9B5EA5" points="28.9484248 43.0720132 16.4911984 43.0720132 16.4911984 24.2210041 28.9484248 24.2210041 28.9484248 27.241039 20.07746 27.241039 20.07746 31.7474787 28.8306001 31.7474787 28.8306001 34.696437 20.07746 34.696437 20.07746 39.8869282 28.9484248 39.8869282"></polygon>
            <path d="M49.0261472,39.674629 C48.0823565,40.8228242 46.9382159,41.7353699 45.5932486,42.4115505 C44.2485197,43.0874926 42.7659311,43.4259406 41.1459598,43.4259406 C39.7458963,43.4259406 38.4328895,43.1700176 37.2059854,42.6591256 C35.9790813,42.1482336 34.911503,41.4522565 34.0039661,40.5711944 C33.0964292,39.6903707 32.3804171,38.6564226 31.8571225,37.4686344 C31.3335893,36.2810848 31.0717035,35.0031392 31.0717035,33.6347977 C31.0717035,32.2662177 31.3335893,30.9885106 31.8571225,29.800961 C32.3804171,28.6134113 33.0964292,27.57517 34.0039661,26.6864755 C34.911503,25.7980195 35.9790813,25.1020424 37.2059854,24.5985442 C38.4328895,24.0952846 39.7458963,23.8436548 41.1459598,23.8436548 C42.7659311,23.8436548 44.2485197,24.1818643 45.5932486,24.858045 C46.9382159,25.5347026 48.0587438,26.4152877 48.9553092,27.5005158 L46.4309016,30.0957614 C45.8489331,29.2624016 45.0978598,28.5897987 44.1776818,28.0786682 C43.2575037,27.5675376 42.2469297,27.3118531 41.1459598,27.3118531 C40.2651362,27.3118531 39.4355926,27.4809579 38.6568519,27.8191674 C37.8783498,28.157377 37.197876,28.6134113 36.616146,29.1872704 C36.033939,29.7616066 35.5740885,30.4301548 35.2358789,31.1926766 C34.8976694,31.955914 34.7288031,32.7699544 34.7288031,33.6347977 C34.7288031,34.4841378 34.8976694,35.2903073 35.2358789,36.0530676 C35.5740885,36.816305 36.033939,37.4843762 36.616146,38.0584738 C37.197876,38.6328099 37.8783498,39.0888443 38.6568519,39.4268153 C39.4355926,39.7652634 40.2651362,39.9341297 41.1459598,39.9341297 C42.3098968,39.9341297 43.3402673,39.6708128 44.2365941,39.143702 C45.1333981,38.6168297 45.8801781,37.9208526 46.4781269,37.0557707 L49.0261472,39.674629 Z" id="Fill-14" fill="#9B5EA5"></path>
            <polygon id="Fill-15" fill="#9B5EA5" points="66.6266156 43.0720132 63.040354 43.0720132 54.5233405 29.8362846 54.5233405 43.0720132 50.9370789 43.0720132 50.9370789 24.1973915 55.0423419 24.1973915 63.040354 36.5131805 63.040354 24.1973915 66.6266156 24.1973915"></polygon>
            <path d="M85.8073671,33.6347262 C85.8073671,32.7698828 85.64184,31.9558425 85.3107858,31.1928436 C84.9797316,30.4300832 84.5267979,29.7617735 83.9517462,29.1874374 C83.3766946,28.6133398 82.7026606,28.1573055 81.9308368,27.8190959 C81.1587745,27.4808863 80.3392484,27.3117816 79.4724969,27.3117816 C78.5900037,27.3117816 77.7626067,27.4808863 76.9905444,27.8190959 C76.2187206,28.1573055 75.5446866,28.6133398 74.9696349,29.1874374 C74.3945833,29.7617735 73.9414111,30.4300832 73.6103569,31.1928436 C73.2795412,31.9558425 73.1142526,32.7698828 73.1142526,33.6347262 C73.1142526,34.4843048 73.2795412,35.2942904 73.6103569,36.0646831 C73.9414111,36.8357914 74.3945833,37.5079173 74.9696349,38.0820149 C75.5446866,38.6565896 76.2187206,39.1123854 76.9905444,39.4505949 C77.7626067,39.789043 78.5900037,39.9576708 79.4724969,39.9576708 C80.3392484,39.9576708 81.1587745,39.789043 81.9308368,39.4505949 C82.7026606,39.1123854 83.3766946,38.6565896 83.9517462,38.0820149 C84.5267979,37.5079173 84.9797316,36.8357914 85.3107858,36.0646831 C85.64184,35.2942904 85.8073671,34.4843048 85.8073671,33.6347262 M89.4642282,33.6347262 C89.4642282,34.9878029 89.2011498,36.2616938 88.6747545,37.4566373 C88.1483592,38.6522964 87.4297235,39.6905377 86.5183704,40.5711228 C85.6072558,41.452185 84.5470714,42.148162 83.3371016,42.659054 C82.1271319,43.1701846 80.8391688,43.4258691 79.4724969,43.4258691 C78.1055865,43.4258691 76.8135687,43.1701846 75.5959666,42.659054 C74.3783645,42.148162 73.3141254,41.452185 72.4027722,40.5711228 C71.4916576,39.6905377 70.7730219,38.6565896 70.2466267,37.4685629 C69.7202314,36.2812518 69.4573915,35.0030677 69.4573915,33.6347262 C69.4573915,32.2663847 69.7202314,30.9846229 70.2466267,29.7889638 C70.7730219,28.5937818 71.4916576,27.555779 72.4027722,26.6747169 C73.3141254,25.7941317 74.3783645,25.1022094 75.5959666,24.5984727 C76.8135687,24.095213 78.1055865,23.8435832 79.4724969,23.8435832 C80.8391688,23.8435832 82.1271319,24.095213 83.3371016,24.5984727 C84.5470714,25.1022094 85.6072558,25.7981864 86.5183704,26.6864039 C87.4297235,27.575337 88.1483592,28.6133398 88.6747545,29.8008894 C89.2011498,30.9884391 89.4642282,32.2663847 89.4642282,33.6347262" id="Fill-16" fill="#9B5EA5"></path>
            <polygon id="Fill-17" fill="#9B5EA5" points="105.083022 43.0720132 92.3188313 43.0720132 92.3188313 24.2210041 96.0467689 24.2210041 96.0467689 39.5329769 105.083022 39.5329769"></polygon>
            <path d="M121.598096,33.6347262 C121.598096,32.7698828 121.432807,31.9558425 121.101514,31.1928436 C120.77046,30.4300832 120.317527,29.7617735 119.742475,29.1874374 C119.167423,28.6133398 118.493389,28.1573055 117.721565,27.8190959 C116.949503,27.4808863 116.129977,27.3117816 115.263226,27.3117816 C114.380732,27.3117816 113.553335,27.4808863 112.781273,27.8190959 C112.009449,28.1573055 111.335654,28.6133398 110.760602,29.1874374 C110.185312,29.7617735 109.73214,30.4300832 109.401085,31.1928436 C109.07027,31.9558425 108.904981,32.7698828 108.904981,33.6347262 C108.904981,34.4843048 109.07027,35.2942904 109.401085,36.0646831 C109.73214,36.8357914 110.185312,37.5079173 110.760602,38.0820149 C111.335654,38.6565896 112.009449,39.1123854 112.781273,39.4505949 C113.553335,39.789043 114.380732,39.9576708 115.263226,39.9576708 C116.129977,39.9576708 116.949503,39.789043 117.721565,39.4505949 C118.493389,39.1123854 119.167423,38.6565896 119.742475,38.0820149 C120.317527,37.5079173 120.77046,36.8357914 121.101514,36.0646831 C121.432807,35.2942904 121.598096,34.4843048 121.598096,33.6347262 M125.255195,33.6347262 C125.255195,34.9878029 124.991878,36.2616938 124.465483,37.4566373 C123.938849,38.6522964 123.220691,39.6905377 122.309099,40.5711228 C121.397984,41.452185 120.3378,42.148162 119.128069,42.659054 C117.917861,43.1701846 116.629897,43.4258691 115.263226,43.4258691 C113.896554,43.4258691 112.604297,43.1701846 111.386695,42.659054 C110.169093,42.148162 109.104854,41.452185 108.193501,40.5711228 C107.282386,39.6905377 106.563751,38.6565896 106.037355,37.4685629 C105.51096,36.2812518 105.24812,35.0030677 105.24812,33.6347262 C105.24812,32.2663847 105.51096,30.9846229 106.037355,29.7889638 C106.563751,28.5937818 107.282386,27.555779 108.193501,26.6747169 C109.104854,25.7941317 110.169093,25.1022094 111.386695,24.5984727 C112.604297,24.095213 113.896554,23.8435832 115.263226,23.8435832 C116.629897,23.8435832 117.917861,24.095213 119.128069,24.5984727 C120.3378,25.1022094 121.397984,25.7981864 122.309099,26.6864039 C123.220691,27.575337 123.938849,28.6133398 124.465483,29.8008894 C124.991878,30.9884391 125.255195,32.2663847 125.255195,33.6347262" id="Fill-18" fill="#9B5EA5"></path>
            <path d="M145.474665,39.6038148 C144.939683,40.2644922 144.357476,40.8347736 143.72876,41.3144206 C143.099327,41.7943061 142.442705,42.1914281 141.758653,42.5057864 C141.074602,42.8206219 140.374331,43.0524552 139.658796,43.2017635 C138.942784,43.3510718 138.231542,43.425726 137.52364,43.425726 C136.123576,43.425726 134.810331,43.1740962 133.583665,42.6708365 C132.356761,42.1678154 131.287036,41.475893 130.374729,40.5945924 C129.462422,39.7140072 128.738778,38.6757659 128.204511,37.4805839 C127.66953,36.2854019 127.402397,34.9955307 127.402397,33.6112089 C127.402397,32.2586092 127.665475,30.9885345 128.192586,29.8007463 C128.719458,28.6134352 129.442864,27.5794871 130.363281,26.6984249 C131.28322,25.8176013 132.356761,25.1216242 133.583665,24.6104937 C134.810331,24.0993632 136.123576,23.8436786 137.52364,23.8436786 C139.143373,23.8436786 140.61809,24.1740173 141.947316,24.8344561 C143.276303,25.4951335 144.40494,26.3761956 145.332989,27.476927 L142.859623,30.0013346 C142.152913,29.0422792 141.3601,28.3539345 140.480946,27.9370161 C139.601315,27.5205747 138.620078,27.311877 137.536519,27.311877 C136.641624,27.311877 135.801347,27.476927 135.016167,27.8072657 C134.230748,28.1376044 133.544072,28.5898225 132.955187,29.1639201 C132.366063,29.7382563 131.903112,30.4063275 131.56538,31.1693263 C131.227647,31.9323252 131.059258,32.7463656 131.059258,33.6112089 C131.059258,34.4920325 131.227647,35.3139438 131.56538,36.0767041 C131.902635,36.839703 132.365586,37.5120674 132.954472,38.0937974 C133.54288,38.6757659 134.229555,39.1318002 135.014497,39.4621389 C135.798962,39.7924776 136.638523,39.9575277 137.53318,39.9575277 C138.380851,39.9575277 139.181057,39.800587 139.934516,39.4859901 C140.687736,39.1716317 141.362724,38.7544748 141.959241,38.2354733 L141.959241,36.4187299 L138.089867,36.4187299 L138.089867,33.3044829 L145.474665,33.3044829 L145.474665,39.6038148 Z" id="Fill-19" fill="#9B5EA5"></path>
            <path d="M148.305131,43.0721086 L151.962231,43.0721086 L151.962231,24.2210995 L148.305131,24.2210995 L148.305131,43.0721086 Z M153.495861,17.9689929 L150.098262,22.5224193 L147.597467,22.5224193 L149.720698,17.9689929 L153.495861,17.9689929 Z" id="Fill-20" fill="#9B5EA5"></path>
            <path d="M167.344827,36.2537037 L164.206967,29.4587444 L161.021882,36.2537037 L167.344827,36.2537037 Z M174.540724,43.072037 L170.529912,43.072037 L168.784006,39.2971127 L159.629928,39.2971127 L157.86041,43.072037 L153.849597,43.072037 L162.767787,24.1974153 L165.622534,24.1974153 L174.540724,43.072037 Z" id="Fill-21" fill="#9B5EA5"></path>
        </g>
    </g>
</svg>